<?xml version="1.0" standalone="no"?>
<!DOCTYPE svg PUBLIC "-//W3C//DTD SVG 20010904//EN"
 "http://www.w3.org/TR/2001/REC-SVG-20010904/DTD/svg10.dtd">
<svg version="1.0" xmlns="http://www.w3.org/2000/svg"
 width="512.000000pt" height="512.000000pt" viewBox="0 0 512.000000 512.000000"
 preserveAspectRatio="xMidYMid meet">
<metadata>
Created by potrace 1.11, written by Peter Selinger 2001-2013
</metadata>
<g transform="translate(0.000000,512.000000) scale(0.100000,-0.100000)"
fill="#000000" stroke="none">
<path d="M1955 4601 c-2 -2 -39 -5 -82 -6 -43 -2 -91 -6 -108 -9 -16 -3 -55
-8 -85 -11 -30 -3 -62 -8 -71 -11 -9 -2 -35 -7 -58 -9 -87 -9 -388 -97 -402
-118 -3 -5 -9 -8 -13 -8 -20 4 -220 -112 -210 -121 3 -4 -3 -9 -14 -12 -21 -7
-142 -130 -142 -144 0 -5 -8 -17 -17 -28 -33 -36 -79 -145 -88 -204 -1 -14 -4
-25 -5 -25 -2 0 -4 -26 -5 -58 -5 -132 60 -231 197 -299 70 -34 125 -39 145
-12 12 16 32 74 39 114 12 67 17 88 27 105 6 11 12 29 14 40 2 10 11 30 19 43
12 18 12 22 3 17 -8 -5 -6 1 4 12 9 11 17 22 17 25 0 12 69 120 97 151 30 35
166 137 182 137 5 0 11 3 13 8 3 8 101 72 111 72 3 0 18 5 34 11 15 6 29 9 29
7 1 -2 10 5 20 14 29 26 69 40 150 53 40 6 76 12 129 22 17 3 82 7 145 9 63 2
151 6 195 8 65 4 82 2 95 -12 17 -17 17 -17 -5 -122 -3 -14 -10 -40 -16 -58
-6 -18 -12 -41 -14 -50 -2 -9 -4 -17 -5 -17 -1 0 -4 -13 -6 -30 -3 -16 -9 -35
-15 -41 -5 -6 -7 -13 -4 -16 3 -3 -6 -40 -20 -83 -14 -43 -24 -80 -21 -82 2
-3 -2 -22 -9 -43 -7 -21 -11 -40 -9 -43 3 -2 0 -15 -5 -29 -5 -14 -12 -40 -15
-60 -3 -19 -8 -41 -10 -49 -3 -8 -8 -25 -10 -39 -3 -14 -11 -45 -17 -70 -6
-25 -12 -52 -13 -60 -1 -9 -5 -21 -10 -28 -4 -6 -5 -12 -2 -12 2 0 -2 -27 -10
-60 -7 -32 -16 -72 -19 -87 -2 -15 -9 -42 -14 -60 -5 -17 -7 -34 -3 -37 3 -3
1 -6 -4 -6 -5 0 -10 -8 -10 -17 -1 -24 -10 -63 -20 -88 -19 -48 -48 -60 -166
-70 -202 -18 -260 -22 -403 -30 -107 -5 -149 -9 -165 -15 -3 -1 -8 -2 -12 -1
-5 0 -9 -6 -9 -14 -1 -8 -2 -21 -3 -27 -1 -13 35 -98 54 -128 5 -8 30 -53 56
-100 85 -152 110 -167 264 -162 250 10 255 10 258 -16 2 -13 -1 -36 -7 -50 -6
-15 -13 -38 -15 -52 -3 -14 -15 -68 -27 -120 -11 -52 -22 -105 -24 -117 -2
-12 -8 -37 -14 -55 -5 -18 -12 -46 -15 -63 -3 -16 -12 -61 -21 -100 -8 -38
-18 -86 -21 -105 -3 -19 -7 -37 -9 -40 -2 -3 -6 -26 -10 -50 -14 -95 -10 -113
36 -159 79 -79 209 -113 274 -73 30 19 64 92 71 152 2 14 6 36 10 50 4 14 8
30 10 36 1 7 10 45 19 85 9 41 19 85 22 99 7 38 11 54 13 60 1 3 2 8 1 12 0 4
4 20 10 35 10 26 16 51 24 98 6 36 16 79 27 120 5 22 12 47 14 55 2 8 8 32 13
53 5 20 7 37 4 37 -3 0 0 6 6 13 6 8 8 16 5 20 -3 3 0 15 6 28 7 12 14 47 15
78 2 31 3 61 4 67 1 12 44 35 75 41 10 2 33 10 50 17 17 8 65 26 106 41 41 15
89 33 105 40 28 12 46 19 70 25 6 2 26 10 45 18 95 39 87 37 133 45 51 10 51
-22 2 -228 -3 -11 -7 -29 -10 -40 -9 -39 -66 -280 -71 -297 -2 -10 -6 -26 -8
-35 -2 -10 -9 -38 -15 -63 -7 -25 -14 -56 -16 -70 -3 -14 -8 -36 -12 -50 -4
-14 -8 -32 -9 -40 -3 -16 -45 -189 -69 -285 -16 -61 -21 -83 -29 -120 -2 -11
-19 -78 -36 -150 -45 -183 -48 -196 -54 -246 -3 -19 -5 -34 -6 -34 -5 0 -22
-137 -21 -170 3 -133 11 -266 17 -277 5 -7 10 -21 11 -31 5 -31 43 -96 78
-135 28 -31 107 -82 138 -88 4 -1 8 -2 10 -3 11 -9 177 -19 177 -12 0 4 20 7
44 7 74 3 248 67 292 108 7 6 24 20 40 31 24 18 39 32 99 96 8 9 15 19 15 23
0 4 9 16 20 28 21 23 55 89 52 101 -1 4 3 7 9 7 5 0 7 5 4 10 -3 6 -2 10 3 10
5 0 12 10 15 22 3 13 11 43 17 68 6 25 13 52 17 60 3 8 7 33 10 55 2 22 5 48
7 58 2 9 1 17 -3 17 -4 0 -7 15 -6 34 3 46 -47 149 -94 193 -48 46 -117 80
-178 89 -65 8 -84 -9 -83 -75 2 -68 -8 -176 -20 -205 -5 -14 -7 -26 -4 -26 4
0 1 -7 -6 -15 -7 -8 -10 -15 -6 -15 4 0 0 -13 -9 -30 -8 -16 -15 -33 -15 -37
0 -20 -36 -112 -57 -146 -13 -20 -21 -37 -18 -37 12 0 -62 -73 -88 -86 -32
-17 -55 -8 -80 30 -13 19 -15 46 -12 142 2 66 6 130 9 144 3 14 7 36 10 50 3
13 8 42 12 65 6 42 7 45 17 85 4 14 9 36 11 50 2 14 7 32 10 40 3 8 7 29 10
45 9 52 16 84 26 110 5 14 7 25 4 25 -4 0 -1 7 6 15 7 8 10 15 7 15 -3 0 -1
15 4 33 5 17 12 46 15 62 2 17 7 38 10 47 3 9 7 25 9 35 2 10 8 33 14 51 5 17
8 32 5 32 -3 0 0 8 5 18 5 9 11 31 14 47 3 17 9 41 12 55 4 14 8 34 10 45 2
11 4 21 5 23 2 1 4 7 5 12 1 6 3 11 5 13 1 1 3 11 4 22 2 11 9 40 16 65 7 25
14 52 15 60 2 8 4 15 5 15 2 0 10 35 15 69 2 16 9 43 14 60 6 17 12 42 15 56
8 43 15 71 21 90 3 10 8 28 10 39 10 46 14 57 24 84 6 15 9 27 6 27 -2 0 1 15
6 33 5 17 12 46 15 62 8 43 12 60 14 63 2 1 3 5 4 10 9 37 17 70 20 87 13 62
51 105 100 110 12 1 21 3 21 4 0 3 16 6 64 16 19 3 37 8 41 10 6 4 49 14 85
20 11 2 20 4 20 5 0 2 36 10 75 15 19 2 51 8 70 13 20 5 43 8 53 6 9 -1 17 1
17 4 0 4 12 8 28 9 15 1 47 4 72 6 82 9 234 20 282 19 84 0 88 40 10 99 -96
73 -130 86 -212 83 -41 -1 -75 -3 -75 -4 0 0 -40 -3 -90 -5 -49 -2 -112 -6
-140 -9 -27 -3 -72 -8 -100 -11 -27 -2 -61 -7 -75 -10 -135 -27 -156 -11 -124
95 7 25 15 56 18 70 2 14 9 45 16 70 7 25 14 54 16 65 1 11 17 74 34 140 18
66 34 130 36 143 3 13 14 60 25 105 11 45 27 113 36 152 8 38 19 77 23 85 5 9
8 43 7 76 -3 94 -47 123 -212 138 -11 1 -24 4 -30 7 -17 10 -85 1 -101 -12
-19 -16 -42 -59 -48 -90 -2 -13 -7 -31 -10 -39 -6 -17 -17 -68 -18 -87 -1 -7
-5 -13 -10 -13 -5 0 -7 -4 -4 -9 3 -4 1 -23 -4 -42 -6 -19 -12 -45 -15 -59
-11 -57 -14 -70 -19 -78 -5 -8 -8 -22 -21 -89 -3 -16 -10 -44 -15 -63 -5 -19
-11 -46 -14 -60 -3 -14 -12 -54 -21 -90 -9 -36 -19 -76 -21 -90 -3 -14 -7 -32
-11 -40 -3 -8 -8 -24 -10 -35 -2 -11 -10 -47 -18 -80 -9 -33 -17 -69 -20 -80
-2 -11 -9 -40 -16 -65 -6 -25 -12 -54 -15 -65 -10 -53 -39 -78 -104 -89 -14
-2 -56 -12 -95 -21 -38 -9 -81 -19 -95 -21 -14 -3 -54 -12 -90 -20 -72 -17
-98 -22 -152 -30 -55 -7 -65 20 -43 126 2 8 4 15 5 15 1 0 3 9 5 20 2 11 15
63 29 114 14 52 22 99 20 103 -3 4 0 8 5 8 6 0 10 3 9 8 -1 4 3 30 10 57 7 28
14 59 17 70 2 11 13 56 24 100 11 43 18 81 16 83 -2 3 0 12 5 22 5 9 11 28 14
41 2 13 14 60 25 104 11 43 18 81 16 84 -3 2 0 10 6 18 6 7 9 13 6 13 -4 0 0
18 8 40 8 22 14 42 15 45 0 3 0 6 1 8 1 1 2 13 3 27 2 14 6 35 10 47 4 12 9
31 11 42 3 12 7 31 10 44 3 12 8 34 10 50 2 15 7 32 10 37 3 5 1 11 -5 15 -6
4 -8 10 -5 15 3 4 -6 22 -21 39 -24 28 -65 46 -134 57 -14 3 -36 7 -50 9 -47
9 -125 17 -200 20 -41 2 -75 4 -75 5 0 4 -337 5 -340 1z"/>
</g>
</svg>
